<svg xmlns="http://www.w3.org/2000/svg" viewBox="0 0 200 200">
    <defs>
        <filter id="shadow" x="-20%" y="-20%" width="140%" height="140%">
            <feGaussianBlur in="SourceAlpha" stdDeviation="3" />
            <feOffset dx="2" dy="2" result="offsetblur" />
            <feComponentTransfer>
                <feFuncA type="linear" slope="0.5" />
            </feComponentTransfer>
            <feMerge>
                <feMergeNode />
                <feMergeNode in="SourceGraphic" />
            </feMerge>
        </filter>
    </defs>

    <g filter="url(#shadow)">
        <path d="M30 70 Q 100 20, 170 70" stroke="black" fill="none" stroke-width="4"/>
        <path d="M30 130 Q 100 180, 170 130" stroke="black" fill="none" stroke-width="4"/>

        <circle cx="50" cy="50" r="15" fill="white" stroke="black" stroke-width="3"/>
        <circle cx="100" cy="30" r="15" fill="white" stroke="black" stroke-width="3"/>
        <circle cx="150" cy="50" r="15" fill="white" stroke="black" stroke-width="3"/>

        <circle cx="50" cy="150" r="15" fill="black"/>
        <circle cx="100" cy="170" r="15" fill="black"/>
        <circle cx="150" cy="150" r="15" fill="black"/>

        <path d="M60 100 L 140 100 M 100 60 L 100 140" stroke="black" stroke-width="6"/>
        <circle cx="100" cy="100" r="30" fill="none" stroke="black" stroke-width="3"/>

        <path d="M85 95 L 95 105 L 105 95 L 115 105" stroke="black" stroke-width="3" fill="none"/>
        <path d="M85 105 L 95 95 L 105 105 L 115 95" stroke="black" stroke-width="3" fill="none"/>
    </g>
</svg>